<svg xmlns="http://www.w3.org/2000/svg" width="48" height="49" viewBox="0 0 48 49">
    <path fill="#676767" fill-rule="nonzero" d="M24.804 36.176v-9.342h-3.108v-3.597h3.108v-2.685c0-1.54.428-2.72 1.285-3.544.857-.823 1.982-1.235 3.375-1.235 1.107 0 2.036.036 2.786.108v3.275h-1.929c-.678 0-1.16.161-1.446.483-.214.25-.321.68-.321 1.289v2.309h3.589l-.482 3.597h-3.107v9.342h6.107c.393 0 .714-.134.964-.402.25-.269.375-.582.375-.94v-21.37c0-.393-.134-.715-.402-.966a1.33 1.33 0 0 0-.937-.376H13.339c-.393 0-.714.125-.964.376-.25.25-.375.573-.375.966v21.37c0 .358.125.671.375.94.25.268.571.402.964.402h11.465z"/>
</svg>
