<svg xmlns="http://www.w3.org/2000/svg" width="48" height="49" viewBox="0 0 48 49">
    <path fill="#676767" fill-rule="nonzero" d="M24.544 36.176c2.04-.004 3.528-.03 4.465-.08 1.018-.054 1.902-.206 2.652-.456a6.242 6.242 0 0 0 2.33-1.477 6.26 6.26 0 0 0 1.473-2.336c.25-.751.402-1.637.456-2.658.053-1.02.08-2.693.08-5.02v-.546c-.003-2.043-.02-3.525-.054-4.447-.071-1.039-.232-1.933-.482-2.685a6.26 6.26 0 0 0-1.473-2.336 6.242 6.242 0 0 0-2.33-1.476c-.75-.251-1.634-.403-2.652-.457-.937-.05-2.425-.076-4.465-.08h-1.089c-2.04.004-3.528.03-4.464.08-1.018.054-1.902.206-2.652.457a6.242 6.242 0 0 0-2.33 1.476 6.26 6.26 0 0 0-1.474 2.336c-.25.752-.402 1.638-.455 2.658-.05.938-.076 2.43-.08 4.474v1.092c.004 2.044.03 3.536.08 4.474.053 1.02.205 1.907.455 2.658a6.26 6.26 0 0 0 1.473 2.336 5.708 5.708 0 0 0 2.33 1.423c.75.286 1.635.456 2.653.51.936.05 2.424.076 4.464.08h1.09zm.313-2.147h-1.714c-1.429 0-2.536-.018-3.322-.054-1.321-.072-2.286-.215-2.893-.43-1.071-.43-1.84-1.199-2.303-2.308-.215-.609-.358-1.575-.429-2.9a78.514 78.514 0 0 1-.054-3.329V23.29c0-1.432.018-2.542.054-3.33.071-1.36.214-2.326.429-2.899.428-1.11 1.196-1.879 2.303-2.308.607-.215 1.572-.358 2.893-.43a77.984 77.984 0 0 1 3.322-.054h1.978c1.302.003 2.32.02 3.057.054 1.358.072 2.322.215 2.893.43 1.107.43 1.875 1.199 2.304 2.308.214.573.357 1.54.429 2.9.035.752.053 1.861.053 3.329v1.983a74.463 74.463 0 0 1-.053 3.064c-.072 1.325-.215 2.291-.43 2.9-.428 1.074-1.196 1.843-2.303 2.308-.571.215-1.535.358-2.893.43-.75.036-1.857.054-3.321.054zm5.571-14.873c.393 0 .724-.144.992-.43.267-.286.42-.626.455-1.02 0-.394-.143-.734-.429-1.02a1.389 1.389 0 0 0-1.018-.43c-.392 0-.732.143-1.017.43a1.395 1.395 0 0 0-.429 1.02c0 .394.143.734.429 1.02.285.286.625.43 1.017.43zM24 30.324a5.985 5.985 0 0 0 3.08-.832 6.186 6.186 0 0 0 2.25-2.256c.554-.948.83-1.977.83-3.087s-.276-2.139-.83-3.087a6.186 6.186 0 0 0-2.25-2.255 5.985 5.985 0 0 0-3.08-.833 5.985 5.985 0 0 0-3.08.833 6.186 6.186 0 0 0-2.25 2.255 6.019 6.019 0 0 0-.831 3.087c0 1.11.277 2.139.83 3.087a6.186 6.186 0 0 0 2.25 2.256 5.985 5.985 0 0 0 3.08.832zm0-2.148c-1.107 0-2.054-.394-2.84-1.181-.785-.788-1.178-1.736-1.178-2.846s.393-2.058 1.178-2.846c.786-.787 1.733-1.181 2.84-1.181 1.107 0 2.053.394 2.84 1.181.785.788 1.178 1.736 1.178 2.846s-.393 2.058-1.179 2.846c-.786.787-1.732 1.181-2.84 1.181z"/>
</svg>
