<svg xmlns="http://www.w3.org/2000/svg" width="48" height="49" viewBox="0 0 48 49">
    <path fill="#676767" fill-rule="nonzero" d="M34.286 36.176c.464 0 .866-.17 1.205-.51.34-.34.509-.742.509-1.208V13.84c0-.465-.17-.868-.509-1.208-.34-.34-.741-.51-1.205-.51H13.714c-.464 0-.866.17-1.205.51-.34.34-.509.743-.509 1.208v20.618c0 .466.17.868.509 1.208.34.34.741.51 1.205.51h20.572zM17.464 19.693a1.922 1.922 0 0 1-1.446-.618 2.032 2.032 0 0 1-.59-1.45c0-.554.197-1.037.59-1.449a1.922 1.922 0 0 1 1.446-.618c.572 0 1.063.206 1.474.618.41.412.616.895.616 1.45 0 .554-.206 1.038-.616 1.45-.411.411-.902.617-1.474.617zm7.554 13.047h-3.536V21.25h3.429v1.557h.053c.25-.501.643-.913 1.179-1.235.643-.394 1.375-.59 2.196-.59 1.643 0 2.804.518 3.482 1.557.5.823.75 2.13.75 3.92v6.281h-3.535v-5.584c0-.93-.09-1.61-.268-2.04-.25-.68-.786-1.02-1.607-1.02-.822 0-1.411.304-1.768.912-.25.466-.375 1.146-.375 2.04v5.692zm-5.732 0h-3.59V21.25h3.59v11.49z"/>
</svg>
