<svg xmlns="http://www.w3.org/2000/svg" width="370" height="374" viewBox="0 0 370 374">
    <g fill="none" fill-rule="evenodd">
        <path fill="#E2E3EB" d="M322.919 332.326H46.532c-12.277 0-22.23-9.953-22.23-22.232V72.927c0-12.278 9.953-22.231 22.23-22.231H322.92c12.278 0 22.232 9.953 22.232 22.231v237.167c0 12.279-9.954 22.232-22.232 22.232M43.559 180.131h29.625l10.57-43.22h-27.15l-14.918 43.22h1.872"/>
        <path fill="#E8E9EF" d="M315.633 38.754a5.026 5.026 0 1 1 10.052.001 5.026 5.026 0 0 1-10.052 0M302.148 38.754a5.027 5.027 0 1 1 10.054.003 5.027 5.027 0 0 1-10.054-.003M288.666 38.754a5.025 5.025 0 1 1 10.051 0 5.027 5.027 0 0 1-10.05 0M9.963 202.774a5.025 5.025 0 0 1 5.025-5.026 5.025 5.025 0 1 1 0 10.052 5.025 5.025 0 0 1-5.025-5.026M9.963 216.526a5.026 5.026 0 1 1 10.052 0 5.026 5.026 0 0 1-10.052 0M9.963 230.279a5.026 5.026 0 1 1 10.052 0 5.026 5.026 0 0 1-10.052 0"/>
        <g>
            <path fill="#1C2142" d="M208.668 356.312c0 4.47-2.922 8.093-6.528 8.093-3.605 0-6.528-3.623-6.528-8.093s2.923-8.093 6.528-8.093c3.606 0 6.528 3.623 6.528 8.093M276.902 356.312c0 4.47-2.923 8.093-6.529 8.093-3.605 0-6.529-3.623-6.529-8.093s2.924-8.093 6.53-8.093c3.605 0 6.528 3.623 6.528 8.093"/>
            <path fill="#334D8F" d="M271.16 338.793h-19.48c-5.42 0-9.815-4.394-9.815-9.814v-77.276H229.34v77.276c0 5.42-4.394 9.814-9.815 9.814h-20.08a5.335 5.335 0 0 0-5.333 5.334v10.697c0 .657.534 1.191 1.193 1.191h4.856c.659 0 1.192-.534 1.192-1.191v-4.238a5.334 5.334 0 0 1 5.334-5.334h59.139a5.334 5.334 0 0 1 5.335 5.334v4.238c0 .657.533 1.191 1.192 1.191h4.857c.657 0 1.192-.534 1.192-1.191v-10.697a5.335 5.335 0 0 0-5.335-5.334h-1.906"/>
            <path fill="#334D8F" d="M242.751 260.594h-15.277a1.853 1.853 0 0 1-1.853-1.853v-4.905c0-1.023.83-1.852 1.853-1.852h15.277c1.025 0 1.854.83 1.854 1.852v4.905c0 1.023-.83 1.853-1.854 1.853"/>
            <path fill="#272E59" d="M297.93 242.723v7.872a3.54 3.54 0 0 1-3.543 3.542H185.724l.106-11.414h112.1M322.332 110.511L297.93 242.723h-28.848s8.17-2.804 9.322-21.37c.585-9.38-.624-22.78-5.578-41.875h1.43c5.55 0 10.052-4.503 10.052-10.051V99.395c0-1.085-.135-2.122-.375-3.13h26.535c7.545 0 13.229 6.835 11.865 14.246"/>
            <path fill="#A09DC2" d="M311.081 110.511l-24.403 132.212h-17.597s8.17-2.804 9.322-21.37c.585-9.38-.624-22.78-5.578-41.875h1.43c5.55 0 10.052-4.503 10.052-10.051V99.395c0-1.085-.135-2.122-.375-3.13h15.284c7.545 0 13.228 6.835 11.865 14.246"/>
            <path fill="#1C2142" d="M272.883 86.358s-6.835-23.134-6.835-48.051c0-24.918-9.69-33.42-20.172-33.42h-22.274c-12.2 0-22.264 9.518-22.978 21.697-.597 10.181-1.505 21.437-2.802 27.74-2.768 13.447-8.483 39.362-13.437 53.003-4.954 13.64-1 25.308 11.064 25.505 0 0-.989 24.72 31.839 17.996 31.13-6.376 52.122-15.764 48.815-53.317a30.045 30.045 0 0 0-3.22-11.153"/>
            <path fill="#282F5A" d="M211.907 32.98c-2.03 0-4.068-.339-5.612-1.36-1.538-1.015-2.403-2.579-2.576-4.65-.777-9.323 6.825-15.202 7.149-15.448a.48.48 0 0 1 .58.765c-.075.057-7.505 5.815-6.773 14.604.15 1.786.852 3.072 2.15 3.929 4.143 2.735 12.755-.071 12.841-.1a.48.48 0 1 1 .303.911c-.245.08-4.139 1.349-8.062 1.349M244.15 29.889a.48.48 0 0 1-.48-.465c-.004-.092-.316-9.25-1.14-12.3a.48.48 0 1 1 .926-.251c.853 3.158 1.16 12.14 1.173 12.52a.48.48 0 0 1-.464.495h-.016"/>
            <path fill="#FAE0C5" d="M281.368 91.117c-39.09 20.65-68.208 12.614-78.268 8.592a31.825 31.825 0 0 1 3.945-2.812c5.568-3.332 13.259-7.988 17.895-11.021 3.638-2.381 4.905-6.346 5.212-9.936.356-4.176-.595-7.834-.595-7.834h-3.253c-9.515 0-17.224-7.709-17.224-17.222V29.409h35.07l4.77 42.23c.942 8.323 7.978 14.602 16.35 14.602h5.884c4.128 0 7.805 1.9 10.214 4.876"/>
            <path fill="#E25C71" d="M243.079 204.774c6.705 3.454 17.82 18.702 35.323 16.577.583-9.38-.623-22.776-5.577-41.875h1.43c5.549 0 10.05-4.503 10.05-10.051V99.392a13.09 13.09 0 0 0-2.939-8.28c-39.087 20.656-68.209 12.622-78.263 8.6a31.397 31.397 0 0 0-6.896 8.052l-24.144 40.588a8.284 8.284 0 0 1-7.114 4.041h-2.361v22.753h6.45c3.668 0 7.162-1.603 9.553-4.377l27.13-31.518s6.67 22.884-1.295 59.427l.002.006s30.92 2.107 38.65 6.09"/>
            <path fill="#FAE0C5" d="M173.512 353.053s-1.73 2.1-4.721 4.679c2.062 1.16 4.382 2.997 6.122 5.861 0 0 5.504-5.651 13.052-6.098-.856-2.37-1.892-4.626-3.096-6.343l.161-18.244H170.7l2.812 20.145"/>
            <path fill="#1C2142" d="M174.913 363.593c-1.74-2.864-4.06-4.7-6.122-5.861-4.141 3.569-10.702 8.053-18.463 9.144 0 0-4.041-.325-5.884 2.411-.624.931 0 2.198 1.104 2.39 5.28.883 21.216 2.938 42.921-.01 1.355-.192 2.333-1.392 2.208-2.746-.234-2.562-1.179-7.179-2.712-11.426-7.548.447-13.052 6.098-13.052 6.098"/>
            <path fill="#37B1DA" d="M155.47 226.09c-11.01 3.046-4.216 37.011-4.216 37.011l-.002.013c.07.548 5.142 40.3 3.512 43.32-1.632 3.044-4.215 9.84 3.513 14.997 0 0-3.513 12.882 8.909 11.472h3.514v.005h14.33l.8-90.188h22.218c-13.641-6.085-44.114-18.97-52.578-16.63"/>
            <path fill="#399DCC" d="M243.079 204.774c-7.73-3.983-38.65-6.09-38.65-6.09l-.003-.006v.007s-36.069-7.968-44.267 0c-8.199 7.958-41.232 44.976-44.045 55.276-1.814 6.654 0 11.012 0 11.012s-6.346 2.516-8.198 6.327c-3.975 8.178 3.945 14.493 3.982 14.524h.002s4.81.997 11.22 8.847l28.13-31.57.002.013.002-.013s-6.793-33.965 4.216-37.01c8.464-2.34 38.937 10.544 52.578 16.629h61.032s8.169-2.8 9.322-21.369c-17.503 2.125-28.618-13.123-35.323-16.577"/>
            <path fill="#FAE0C5" d="M111.9 285.824h-.002.002l-10.772 19.44s-2.236-.559-5.553-1.513c1.24 2.549 2.43 5.813 1.803 8.074 0 0 4.8-.619 9.868 3.179a65.263 65.263 0 0 0 1.84-4.584l14.034-15.749c-6.41-7.85-11.22-8.847-11.22-8.847"/>
            <path fill="#1C2142" d="M97.378 311.825c.627-2.261-.564-5.525-1.803-8.074-6.672-1.916-17.741-5.434-23.947-9.248a1.931 1.931 0 0 0-2.535.412 1.9 1.9 0 0 0-.441 1.23c0 .432.144.864.432 1.218 3.667 4.484 16.819 20.007 28.128 26.035 2.083 1.114 4.684.587 6.076-1.325 1.119-1.53 2.502-3.812 3.958-7.07-5.068-3.797-9.868-3.178-9.868-3.178"/>
            <path fill="#F5C192" d="M239.532 68.106s-4.743 7.882-9.38 7.834c.356-4.176-.595-7.834-.595-7.834h9.975"/>
            <path fill="#E88194" d="M205.724 139.734a.482.482 0 0 1-.454-.324c-.053-.155-5.25-15.675 3.431-30.22a.48.48 0 1 1 .825.492c-8.447 14.152-3.4 29.265-3.348 29.415a.48.48 0 0 1-.297.61l-.157.027M216.842 165.9a.48.48 0 0 1-.064-.955l50.158-6.966-3.02-50.624a.48.48 0 0 1 .959-.057l3.045 51.066a.48.48 0 0 1-.414.504l-50.598 7.028-.066.004M216.843 179.825a.48.48 0 0 1-.406-.223l-1.068-1.696a.48.48 0 1 1 .812-.512l.926 1.471 54.479-.14a.48.48 0 1 1 0 .96l-54.742.14h-.001"/>
            <path fill="#FFFFFE" d="M224.062 53.077s-4.33-1.868-5.008-.764c-.68 1.104 2.122 2.463 5.857 2.463 3.735 0 6.622-2.293 5.858-3.567-.765-1.273-6.707 1.868-6.707 1.868"/>
            <path fill="#F5C192" d="M225.235 57.955c-1.465 0-2.512-.51-2.576-.543a.48.48 0 0 1 .428-.86c.019.011 2.045.985 4.26-.007a.48.48 0 0 1 .392.875c-.894.4-1.753.535-2.504.535M223.341 49.187c-.948 0-1.697-.416-2.072-.77a.483.483 0 0 1-.15-.349V36.184c0-2.402-2.264-3.01-2.287-3.015a.481.481 0 0 1 .238-.93c1.04.267 3.01 1.434 3.01 3.945v11.652c.384.263 1.463.803 2.855-.161a.48.48 0 0 1 .547.788c-.767.533-1.5.724-2.14.724"/>
            <path fill="#1C2142" d="M230.28 37.911c-1.118 0-2.028.91-2.028 2.03a2.03 2.03 0 0 0 2.028 2.028c1.12 0 2.03-.91 2.03-2.028 0-1.12-.91-2.03-2.03-2.03M214.817 37.911c-1.12 0-2.03.91-2.03 2.03 0 1.118.91 2.028 2.03 2.028a2.03 2.03 0 0 0 2.029-2.028c0-1.12-.91-2.03-2.029-2.03"/>
            <path fill="#F1B29D" d="M239.532 44.768a3.278 3.278 0 1 1-6.556.001 3.278 3.278 0 0 1 6.556-.001M214.822 44.769a3.274 3.274 0 0 1-3.284 3.273c-.98 0-1.862-.433-2.458-1.113v-4.33a3.259 3.259 0 0 1 2.458-1.114 3.282 3.282 0 0 1 3.284 3.284"/>
            <path fill="#1C2142" d="M235.352 33.692l-.134-.019c-5.739-1.673-7.957-.094-7.98-.079a.482.482 0 0 1-.67-.093.476.476 0 0 1 .086-.667c.1-.079 2.56-1.91 8.832-.083a.481.481 0 0 1-.134.941M210.733 33.692a.479.479 0 0 1-.215-.909c3.192-1.596 6.829-.473 6.983-.424.252.08.392.35.312.603a.479.479 0 0 1-.601.312c-.034-.01-3.426-1.05-6.264.368l-.215.05"/>
            <path fill="#FFFFFE" d="M232.305 16.692c-4.339 0-7.868-3.528-7.868-7.866 0-4.337 3.53-7.866 7.868-7.866 4.336 0 7.865 3.529 7.865 7.866 0 4.338-3.529 7.866-7.865 7.866zm-21.7 0c-4.337 0-7.865-3.528-7.865-7.866 0-4.337 3.528-7.866 7.865-7.866 4.338 0 7.866 3.529 7.866 7.866 0 4.338-3.528 7.866-7.866 7.866zm44.935-3.421l-15.674-8.973C238.32 1.729 235.514 0 232.305 0c-2.94 0-5.54 1.45-7.146 3.665-4.083-1.898-6.57-.769-7.508-.132C216.04 1.393 213.485 0 210.605 0c-4.866 0-8.825 3.96-8.825 8.826 0 4.866 3.959 8.826 8.825 8.826s8.826-3.96 8.826-8.826c0-1.644-.46-3.18-1.246-4.498.726-.497 2.835-1.484 6.446.151a8.78 8.78 0 0 0-1.154 4.347c0 4.866 3.96 8.826 8.828 8.826 4.866 0 8.825-3.96 8.825-8.826a8.731 8.731 0 0 0-.54-3.006l14.474 8.284.238.064a.48.48 0 0 0 .238-.897z"/>
            <path fill="#F9FAF9" d="M320.753 175.7l-.037-.005v-8.623l.037-.005c1.815 0 3.291 1.936 3.291 4.316s-1.476 4.317-3.29 4.317zm0-10.553l-.037.002v-3.394a.805.805 0 0 0-.806-.805h-16.396a.806.806 0 0 0-.806.805v20.056c0 .444.361.805.806.805h16.396a.805.805 0 0 0 .806-.805v-4.193l.037.002c2.874 0 5.211-2.797 5.211-6.237 0-3.439-2.337-6.236-5.21-6.236z"/>
            <path fill="#1C2142" d="M308.607 195.144h-6.165L244.04 367.396h6.081l55.405-163.406 55.403 163.406h6.083l-58.404-172.252M60.845 195.144L2.44 367.396h6.083L63.927 203.99l55.404 163.406h6.082L67.01 195.144h-6.165"/>
            <path fill="#525C99" d="M81.881 136.911l-10.57 43.22H41.687l14.918-43.22h25.277"/>
            <path fill="#FFFFFE" d="M83.753 136.911l-10.57 43.22H43.559l14.928-43.22h25.267"/>
            <path fill="#6C72A7" d="M80.328 177.65H32.005c-.917 0-1.661.746-1.661 1.664v1.64c0 .917.744 1.662 1.661 1.662h48.323c.918 0 1.662-.745 1.662-1.663v-1.64c0-.917-.744-1.662-1.662-1.662"/>
            <path fill="#445292" d="M54.944 147.174l-1.575-.893 3.235-9.37h1.882l-3.542 10.263"/>
            <path fill="#C5C5D9" d="M78.022 160.364l-1.651-.94-21.427-12.25 3.542-10.263h25.267l-5.73 23.453"/>
            <path fill="#6C72A7" d="M132.354 143.443H24.55c-1.559 0-3.063-1.263-3.36-2.822L8 71.376c-.143-.748.017-1.466.445-1.996l.363-.447c.428-.53 1.09-.827 1.838-.827h107.806c1.559 0 3.063 1.264 3.36 2.823L135 140.172c.144.75-.017 1.467-.445 1.997l-.363.448c-.429.529-1.09.826-1.839.826"/>
            <path fill="#FFFFFE" d="M132.402 141.342H26.25c-1.559 0-3.063-1.264-3.36-2.823L10.014 70.93c-.297-1.56.726-2.823 2.286-2.823h106.15c1.56 0 3.064 1.264 3.36 2.823l12.877 67.59c.297 1.56-.726 2.823-2.285 2.823"/>
            <path fill="#4D406C" d="M130.895 138.87H26.815c-.554 0-1.089-.45-1.195-1.003L12.993 71.58c-.106-.553.258-1.003.812-1.003h104.081c.554 0 1.089.45 1.194 1.003l12.627 66.286c.106.553-.257 1.004-.812 1.004"/>
            <path fill="#5B7BB0" d="M17.69 77.532h1.585c.438 0 .725-.355.641-.792-.083-.438-.506-.792-.943-.792h-1.585c-.438 0-.724.354-.642.792.084.437.506.792.944.792"/>
            <path fill="#292245" d="M33.54 77.532h15.851c.437 0 .725-.355.641-.792-.083-.438-.506-.792-.943-.792h-15.85c-.438 0-.726.354-.642.792.083.437.506.792.943.792"/>
            <path fill="#665896" d="M52.561 77.532h1.585c.438 0 .725-.355.641-.792-.082-.438-.506-.792-.943-.792H52.26c-.437 0-.725.354-.642.792.084.437.506.792.944.792M68.412 77.532h5.198c.438 0 .725-.355.641-.792-.083-.438-.505-.792-.943-.792h-5.199c-.438 0-.725.354-.641.792.083.437.506.792.944.792"/>
            <path fill="#695C8A" d="M57.316 77.532h7.926c.437 0 .724-.355.64-.792-.083-.438-.505-.792-.943-.792h-7.925c-.437 0-.725.354-.642.792.084.437.506.792.944.792M22.445 77.532h7.926c.437 0 .724-.355.64-.792-.083-.438-.505-.792-.943-.792h-7.925c-.437 0-.724.354-.64.792.083.437.504.792.942.792M42.217 81.478c-.084-.438-.506-.792-.943-.792H23.84c-.438 0-.726.354-.643.792.084.438.506.793.944.793h17.436c.437 0 .724-.355.641-.793"/>
            <path fill="#E3648D" d="M20.668 80.686H18.29c-.438 0-.726.354-.642.792.083.438.506.793.943.793h2.378c.438 0 .725-.355.642-.793-.084-.438-.506-.792-.944-.792"/>
            <path fill="#695C8A" d="M60.295 80.686h-15.85c-.439 0-.726.354-.642.792.083.438.505.793.944.793h15.85c.437 0 .724-.355.64-.793-.082-.438-.505-.792-.942-.792"/>
            <path fill="#665896" d="M66.144 82.271c.438 0 .725-.355.641-.793-.082-.438-.506-.792-.942-.792h-2.378c-.438 0-.725.354-.642.792.083.438.505.793.943.793h2.378"/>
            <path fill="#695C8A" d="M74.21 80.686h-5.198c-.437 0-.725.354-.642.792.084.438.506.793.944.793h5.198c.438 0 .725-.355.643-.793-.084-.438-.507-.792-.944-.792"/>
            <path fill="#665896" d="M55.952 87.01c.436 0 .724-.356.641-.792-.084-.438-.506-.793-.944-.793h-1.585c-.437 0-.724.355-.641.793.084.436.506.792.943.792h1.586"/>
            <path fill="#F8EE61" d="M19.496 87.01h1.585c.437 0 .724-.356.64-.792-.083-.438-.505-.793-.943-.793h-1.585c-.437 0-.725.355-.641.793.084.436.506.792.944.792"/>
            <path fill="#5B7BB0" d="M58.178 86.218c.083.436.506.792.944.792h7.924c.438 0 .725-.356.642-.792-.083-.438-.505-.793-.943-.793h-7.926c-.437 0-.725.355-.641.793M24.25 87.01h7.925c.438 0 .726-.356.643-.792-.084-.438-.506-.793-.944-.793h-7.926c-.438 0-.724.355-.641.793.083.436.506.792.944.792M75.113 85.425h-5.198c-.438 0-.725.355-.641.793.083.436.506.792.942.792h5.2c.436 0 .724-.356.641-.792-.084-.438-.506-.793-.944-.793"/>
            <path fill="#665896" d="M35.345 87.01h15.85c.439 0 .727-.356.643-.792-.083-.438-.506-.793-.944-.793h-15.85c-.438 0-.725.355-.641.793.082.436.505.792.942.792"/>
            <path fill="#695C8A" d="M76.017 90.164h-5.2c-.437 0-.725.354-.641.792.084.438.506.793.944.793h5.198c.438 0 .725-.355.641-.793-.082-.438-.506-.792-.942-.792"/>
            <path fill="#292245" d="M67.647 90.164H65.27c-.436 0-.723.354-.64.792.083.438.505.793.943.793h2.378c.437 0 .725-.355.641-.793-.083-.438-.506-.792-.944-.792"/>
            <path fill="#695C8A" d="M63.043 90.956c-.083-.438-.506-.792-.943-.792H46.249c-.437 0-.724.354-.641.792.083.438.506.793.943.793h15.85c.439 0 .726-.355.642-.793M25.002 90.956c.084.438.506.793.944.793H43.38c.438 0 .725-.355.642-.793-.084-.438-.506-.792-.944-.792H25.644c-.438 0-.725.354-.642.792"/>
            <path fill="#5B7BB0" d="M22.474 90.164h-2.377c-.438 0-.726.354-.643.792.084.438.506.793.944.793h2.378c.438 0 .725-.355.641-.793-.083-.438-.506-.792-.943-.792M76.919 94.903h-2.028c-.438 0-.725.355-.643.793.084.436.506.792.944.792h2.03c.436 0 .724-.356.64-.792-.083-.438-.505-.793-.943-.793M59.984 95.696c-.084-.438-.506-.793-.944-.793h-1.585c-.438 0-.725.355-.641.793.083.436.506.792.943.792h1.585c.438 0 .724-.356.642-.792"/>
            <path fill="#695C8A" d="M54.285 94.903h-15.85c-.438 0-.725.355-.642.793.084.436.506.792.943.792h15.85c.438 0 .725-.356.642-.792-.083-.438-.505-.793-.943-.793M72.664 95.696c-.083-.438-.506-.793-.943-.793H62.21c-.438 0-.725.355-.641.793.083.436.506.792.943.792h9.51c.438 0 .725-.356.642-.792"/>
            <path fill="#665896" d="M26.056 96.488h9.511c.437 0 .724-.356.641-.792-.084-.438-.506-.793-.943-.793h-9.511c-.438 0-.725.355-.641.793.083.436.506.792.943.792"/>
            <path fill="#E3648D" d="M21.301 96.488h1.584c.44 0 .726-.356.643-.792-.084-.438-.506-.793-.944-.793h-1.585c-.438 0-.725.355-.641.793.083.436.506.792.943.792"/>
            <path fill="#F8EE61" d="M22.204 101.227h1.585c.438 0 .725-.355.641-.793-.083-.438-.506-.792-.944-.792h-1.585c-.436 0-.724.354-.64.792.083.438.505.793.943.793"/>
            <path fill="#292245" d="M26.959 101.227h7.925c.438 0 .725-.355.642-.793-.084-.438-.506-.792-.944-.792h-7.925c-.437 0-.725.354-.642.792.084.438.506.793.944.793"/>
            <path fill="#695C8A" d="M69.453 99.642h-7.926c-.437 0-.723.354-.64.792.083.438.505.793.943.793h7.925c.437 0 .725-.355.642-.793-.084-.438-.506-.792-.944-.792M77.821 99.642h-5.198c-.438 0-.725.354-.641.792.083.438.505.793.943.793h5.199c.438 0 .725-.355.641-.793-.083-.438-.506-.792-.944-.792"/>
            <path fill="#5B7BB0" d="M57.075 101.227h1.585c.438 0 .725-.355.641-.793-.083-.438-.506-.792-.944-.792h-1.585c-.437 0-.724.354-.64.792.083.438.505.793.943.793"/>
            <path fill="#695C8A" d="M38.054 101.227h15.851c.438 0 .725-.355.641-.793-.083-.438-.506-.792-.943-.792H37.752c-.438 0-.725.354-.641.792.083.438.506.793.943.793M27.71 105.173c.084.438.506.793.944.793H46.09c.437 0 .724-.355.64-.793-.083-.438-.504-.792-.943-.792H28.352c-.437 0-.725.354-.642.792"/>
            <path fill="#E3648D" d="M25.182 104.38h-2.378c-.437 0-.724.355-.64.793.083.438.504.793.942.793h2.378c.438 0 .725-.355.641-.793-.083-.438-.505-.792-.943-.792"/>
            <path fill="#695C8A" d="M65.751 105.173c-.083-.438-.505-.792-.943-.792h-15.85c-.438 0-.726.354-.642.792.083.438.506.793.944.793h15.85c.438 0 .725-.355.641-.793"/>
            <path fill="#292245" d="M70.658 105.966c.438 0 .725-.355.641-.793-.083-.438-.506-.792-.943-.792h-2.377c-.438 0-.726.354-.643.792.084.438.506.793.944.793h2.378"/>
            <path fill="#695C8A" d="M78.725 104.38h-5.199c-.438 0-.725.355-.642.793.084.438.506.793.944.793h5.198c.438 0 .725-.355.642-.793-.083-.438-.505-.792-.943-.792"/>
            <path fill="#665896" d="M61.107 109.912c-.084-.437-.506-.792-.944-.792h-1.585c-.438 0-.725.355-.641.792.083.438.506.793.944.793h1.585c.437 0 .724-.355.64-.793"/>
            <path fill="#292245" d="M79.627 109.12H74.43c-.438 0-.725.355-.642.792.083.438.505.793.943.793h5.199c.437 0 .725-.355.642-.793-.084-.437-.506-.792-.944-.792"/>
            <path fill="#5B7BB0" d="M39.86 110.705h15.85c.438 0 .725-.355.642-.793-.084-.437-.506-.792-.944-.792h-15.85c-.438 0-.725.355-.642.792.084.438.506.793.944.793"/>
            <path fill="#695C8A" d="M28.764 110.705h7.925c.438 0 .725-.355.643-.793-.084-.437-.507-.792-.944-.792h-7.925c-.439 0-.726.355-.642.792.083.438.506.793.943.793"/>
            <path fill="#F8EE61" d="M24.01 110.705h1.585c.437 0 .724-.355.64-.793-.083-.437-.505-.792-.943-.792h-1.585c-.438 0-.725.355-.641.792.083.438.506.793.944.793"/>
            <path fill="#665896" d="M63.636 110.705h7.924c.438 0 .726-.355.643-.793-.084-.437-.506-.792-.944-.792h-7.926c-.438 0-.725.355-.641.792.083.438.506.793.944.793M39.178 115.444c.437 0 .724-.354.64-.793-.083-.438-.505-.792-.943-.792h-9.51c-.437 0-.724.354-.64.792.083.439.504.793.942.793h9.51M80.53 113.859h-2.028c-.438 0-.726.354-.642.792.083.439.506.793.944.793h2.028c.438 0 .725-.354.641-.793-.083-.438-.506-.792-.943-.792"/>
            <path fill="#5B7BB0" d="M61.368 115.444h1.585c.438 0 .725-.354.641-.793-.083-.438-.506-.792-.943-.792h-1.584c-.44 0-.726.354-.643.792.084.439.506.793.944.793"/>
            <path fill="#695C8A" d="M42.348 115.444h15.85c.438 0 .725-.354.641-.793-.083-.438-.506-.792-.943-.792h-15.85c-.439 0-.726.354-.642.792.083.439.506.793.944.793"/>
            <path fill="#E3648D" d="M24.912 115.444h1.585c.438 0 .725-.354.641-.793-.082-.438-.506-.792-.942-.792H24.61c-.437 0-.725.354-.642.792.084.439.506.793.944.793"/>
            <path fill="#695C8A" d="M66.123 115.444h9.51c.438 0 .725-.354.642-.793-.084-.438-.506-.792-.944-.792h-9.51c-.437 0-.724.354-.64.792.082.439.505.793.942.793"/>
            <path fill="#665896" d="M81.433 118.597h-5.198c-.438 0-.726.356-.643.793.084.438.506.792.944.792h5.198c.438 0 .726-.354.643-.792-.084-.437-.506-.793-.944-.793"/>
            <path fill="#5B7BB0" d="M73.065 118.597h-2.378c-.438 0-.725.356-.642.793.083.438.505.792.943.792h2.378c.438 0 .725-.354.641-.792-.082-.437-.506-.793-.942-.793"/>
            <path fill="#292245" d="M48.496 118.597H31.061c-.438 0-.725.356-.642.793.083.438.505.792.943.792h17.436c.438 0 .725-.354.641-.792-.083-.437-.506-.793-.943-.793"/>
            <path fill="#695C8A" d="M67.517 118.597h-15.85c-.439 0-.726.356-.642.793.083.438.505.792.943.792h15.85c.438 0 .725-.354.642-.792-.083-.437-.506-.793-.943-.793"/>
            <path fill="#292245" d="M87.724 77.532h15.85c.438 0 .725-.355.642-.792-.084-.438-.506-.792-.944-.792h-15.85c-.437 0-.724.354-.642.792.084.437.506.792.944.792"/>
            <path fill="#665896" d="M106.744 77.532h1.585c.438 0 .725-.355.642-.792-.084-.438-.505-.792-.943-.792h-1.585c-.438 0-.725.354-.641.792.082.437.505.792.942.792"/>
            <path fill="#695C8A" d="M111.5 77.532h4.647c.436 0 .723-.355.64-.792-.083-.438-.505-.792-.943-.792h-4.646c-.438 0-.725.354-.642.792.084.437.506.792.944.792M76.628 77.532h7.926c.438 0 .725-.355.641-.792-.083-.438-.506-.792-.943-.792h-7.925c-.438 0-.725.354-.642.792.083.437.506.792.943.792M95.483 81.478c-.084-.438-.506-.792-.944-.792H77.103c-.437 0-.724.354-.64.792.083.438.504.793.943.793H94.84c.438 0 .726-.355.643-.793M116.747 80.686H97.709c-.438 0-.725.354-.642.792.083.438.506.793.943.793h19.038c.438 0 .726-.355.642-.793-.083-.438-.506-.792-.943-.792"/>
            <path fill="#665896" d="M110.135 87.01c.438 0 .725-.356.641-.792-.083-.438-.506-.793-.943-.793h-1.585c-.438 0-.725.355-.642.793.084.436.506.792.944.792h1.585"/>
            <path fill="#5B7BB0" d="M112.361 86.218c.084.436.506.792.944.792h4.25c.438 0 .725-.356.641-.792-.082-.438-.506-.793-.943-.793h-4.25c-.437 0-.724.355-.642.793M78.434 87.01h7.926c.437 0 .724-.356.641-.792-.084-.438-.506-.793-.944-.793h-7.925c-.437 0-.725.355-.642.793.084.436.506.792.944.792"/>
            <path fill="#665896" d="M89.53 87.01h15.85c.438 0 .725-.356.641-.792-.083-.438-.505-.793-.943-.793h-15.85c-.439 0-.726.355-.642.793.083.436.506.792.944.792"/>
            <path fill="#695C8A" d="M119.208 90.956c-.083-.438-.505-.792-.943-.792h-17.832c-.437 0-.725.354-.642.792.084.438.506.793.944.793h17.832c.437 0 .725-.355.641-.793M79.187 90.956c.082.438.505.793.942.793h17.436c.438 0 .725-.355.641-.793-.082-.438-.505-.792-.943-.792H79.828c-.438 0-.725.354-.641.792"/>
            <path fill="#5B7BB0" d="M114.167 95.696c-.083-.438-.506-.793-.943-.793h-1.586c-.437 0-.724.355-.64.793.083.436.505.792.943.792h1.585c.438 0 .725-.356.641-.792"/>
            <path fill="#695C8A" d="M108.468 94.903h-15.85c-.438 0-.725.355-.641.793.083.436.506.792.943.792h15.85c.438 0 .726-.356.642-.792-.083-.438-.506-.793-.944-.793M120.507 95.696c-.083-.438-.505-.793-.943-.793h-3.17c-.438 0-.726.355-.642.793.084.436.506.792.944.792h3.17c.437 0 .724-.356.64-.792"/>
            <path fill="#665896" d="M80.24 96.488h9.51c.437 0 .725-.356.642-.792-.084-.438-.506-.793-.944-.793h-9.51c-.438 0-.726.355-.642.793.084.436.506.792.944.792"/>
            <path fill="#292245" d="M81.143 101.227h7.925c.438 0 .725-.355.641-.793-.082-.438-.506-.792-.943-.792h-7.925c-.438 0-.725.354-.642.792.084.438.506.793.944.793"/>
            <path fill="#695C8A" d="M119.835 99.642h-4.123c-.438 0-.726.354-.643.792.084.438.506.793.944.793h4.124c.438 0 .725-.355.642-.793-.084-.438-.506-.792-.944-.792"/>
            <path fill="#5B7BB0" d="M111.258 101.227h1.585c.438 0 .725-.355.642-.793-.083-.438-.505-.792-.943-.792h-1.585c-.438 0-.726.354-.642.792.083.438.505.793.943.793"/>
            <path fill="#695C8A" d="M92.238 101.227h15.85c.438 0 .725-.355.642-.793-.084-.438-.506-.792-.944-.792h-15.85c-.437 0-.725.354-.642.792.084.438.506.793.944.793M81.894 105.173c.083.438.507.793.943.793h17.436c.438 0 .725-.355.642-.793-.083-.438-.507-.792-.943-.792H82.536c-.438 0-.725.354-.642.792M122.313 105.173c-.084-.438-.506-.792-.944-.792h-18.228c-.437 0-.724.354-.64.792.083.438.505.793.943.793h18.227c.438 0 .725-.355.642-.793"/>
            <path fill="#665896" d="M115.29 109.912c-.083-.437-.505-.792-.943-.792h-1.585c-.437 0-.725.355-.642.792.084.438.506.793.944.793h1.585c.438 0 .725-.355.641-.793"/>
            <path fill="#5B7BB0" d="M94.044 110.705h15.85c.437 0 .725-.355.641-.793-.083-.437-.506-.792-.943-.792h-15.85c-.438 0-.726.355-.642.792.083.438.506.793.944.793"/>
            <path fill="#695C8A" d="M82.948 110.705h7.926c.436 0 .724-.355.64-.793-.083-.437-.505-.792-.943-.792h-7.925c-.437 0-.724.355-.64.792.082.438.504.793.942.793"/>
            <path fill="#665896" d="M117.819 110.705h4.755c.438 0 .726-.355.642-.793-.084-.437-.506-.792-.944-.792h-4.755c-.437 0-.725.355-.642.792.084.438.506.793.944.793M93.361 115.444c.438 0 .725-.354.642-.793-.083-.438-.507-.792-.943-.792h-9.511c-.438 0-.725.354-.641.792.082.439.505.793.942.793h9.511"/>
            <path fill="#5B7BB0" d="M115.551 115.444h1.585c.438 0 .726-.354.643-.793-.084-.438-.506-.792-.944-.792h-1.585c-.438 0-.725.354-.642.792.083.439.506.793.943.793"/>
            <path fill="#695C8A" d="M96.53 115.444h15.851c.438 0 .725-.354.643-.793-.084-.438-.506-.792-.944-.792H96.23c-.438 0-.725.354-.643.792.084.439.506.793.944.793M120.306 115.444h3.458c.438 0 .725-.354.642-.793-.083-.438-.506-.792-.943-.792h-3.458c-.438 0-.725.354-.641.792.082.439.504.793.942.793"/>
            <path fill="#5B7BB0" d="M124.474 118.597h-.523c-.437 0-.724.356-.64.793.082.438.505.792.942.792h.523c.438 0 .725-.354.641-.792-.083-.437-.506-.793-.943-.793"/>
            <path fill="#292245" d="M102.68 118.597H85.244c-.438 0-.725.356-.641.793.083.438.505.792.944.792h17.435c.437 0 .724-.354.641-.792-.083-.437-.506-.793-.943-.793"/>
            <path fill="#695C8A" d="M121.7 118.597h-15.85c-.438 0-.725.356-.642.793.084.438.506.792.943.792h15.852c.436 0 .723-.354.64-.792-.083-.437-.505-.793-.943-.793"/>
            <path fill="#5B7BB0" d="M27.89 118.597h-2.377c-.438 0-.725.356-.642.793.083.438.507.792.943.792h2.378c.438 0 .725-.354.642-.792-.084-.437-.506-.793-.944-.793M26.546 124.023h1.585c.438 0 .726-.355.642-.793-.083-.437-.506-.792-.944-.792h-1.585c-.437 0-.724.355-.64.792.082.438.504.793.942.793"/>
            <path fill="#292245" d="M42.396 124.023h15.851c.438 0 .725-.355.641-.793-.082-.437-.505-.792-.942-.792H42.095c-.438 0-.725.355-.642.792.083.438.507.793.943.793"/>
            <path fill="#665896" d="M61.417 124.023h1.586c.437 0 .724-.355.641-.793-.083-.437-.506-.792-.944-.792h-1.584c-.438 0-.725.355-.643.792.084.438.507.793.944.793M77.268 124.023h5.198c.439 0 .725-.355.641-.793-.082-.437-.505-.792-.943-.792h-5.198c-.438 0-.725.355-.641.792.082.438.505.793.943.793"/>
            <path fill="#695C8A" d="M66.173 124.023h7.925c.437 0 .724-.355.64-.793-.083-.437-.505-.792-.943-.792H65.87c-.437 0-.724.355-.64.792.083.438.505.793.943.793M31.302 124.023h7.925c.437 0 .724-.355.64-.793-.082-.437-.504-.792-.943-.792H31c-.437 0-.724.355-.64.792.083.438.505.793.943.793M51.074 127.97c-.084-.438-.506-.793-.944-.793H32.695c-.438 0-.725.355-.642.793.084.438.506.792.944.792h17.435c.437 0 .725-.354.642-.792"/>
            <path fill="#E3648D" d="M29.525 127.177h-2.378c-.438 0-.725.355-.641.793.083.438.506.792.943.792h2.377c.438 0 .725-.354.642-.792-.083-.438-.505-.793-.943-.793"/>
            <path fill="#695C8A" d="M69.15 127.177H53.3c-.438 0-.725.355-.641.793.083.438.506.792.944.792h15.85c.437 0 .725-.354.641-.792-.083-.438-.506-.793-.943-.793"/>
            <path fill="#665896" d="M75 128.762c.438 0 .726-.354.642-.792-.083-.438-.506-.793-.943-.793H72.32c-.437 0-.725.355-.642.793.084.438.506.792.944.792H75"/>
            <path fill="#695C8A" d="M83.067 127.177h-5.199c-.437 0-.724.355-.64.793.082.438.505.792.942.792h5.2c.436 0 .724-.354.64-.792-.083-.438-.505-.793-.943-.793"/>
            <path fill="#665896" d="M64.808 133.501c.437 0 .724-.355.641-.793-.083-.437-.505-.792-.943-.792h-1.585c-.437 0-.725.355-.642.792.084.438.506.793.944.793h1.585"/>
            <path fill="#F8EE61" d="M28.352 133.501h1.585c.437 0 .725-.355.642-.793-.084-.437-.506-.792-.944-.792H28.05c-.438 0-.726.355-.642.792.084.438.506.793.944.793"/>
            <path fill="#5B7BB0" d="M67.034 132.708c.083.438.507.793.944.793h7.925c.438 0 .725-.355.642-.793-.084-.437-.506-.792-.944-.792h-7.925c-.438 0-.725.355-.642.792M33.107 133.501h7.925c.438 0 .725-.355.642-.793-.084-.437-.506-.792-.944-.792h-7.925c-.438 0-.725.355-.641.792.083.438.505.793.943.793M83.97 131.916h-5.2c-.437 0-.724.355-.64.792.083.438.506.793.943.793h5.199c.437 0 .724-.355.641-.793-.084-.437-.506-.792-.944-.792"/>
            <path fill="#665896" d="M44.202 133.501h15.85c.439 0 .726-.355.642-.793-.083-.437-.506-.792-.944-.792H43.9c-.437 0-.725.355-.641.792.083.438.505.793.943.793"/>
            <path fill="#292245" d="M96.58 124.023h15.85c.438 0 .726-.355.643-.793-.084-.437-.506-.792-.944-.792h-15.85c-.438 0-.725.355-.642.792.084.438.506.793.944.793"/>
            <path fill="#665896" d="M115.601 124.023h1.585c.438 0 .725-.355.642-.793-.084-.437-.506-.792-.944-.792h-1.585c-.438 0-.725.355-.641.792.083.438.506.793.943.793"/>
            <path fill="#695C8A" d="M120.356 124.023h5.152c.437 0 .724-.355.64-.793-.082-.437-.505-.792-.942-.792h-5.152c-.438 0-.725.355-.642.792.084.438.506.793.944.793M85.485 124.023h7.925c.438 0 .726-.355.642-.793-.083-.437-.506-.792-.944-.792h-7.924c-.438 0-.726.355-.643.792.084.438.506.793.944.793M104.339 127.97c-.084-.438-.506-.793-.944-.793H85.959c-.436 0-.724.355-.64.793.083.438.505.792.943.792h17.435c.438 0 .725-.354.642-.792M125.999 127.177h-19.433c-.439 0-.726.355-.642.793.083.438.505.792.943.792h19.434c.438 0 .725-.354.642-.792-.084-.438-.506-.793-.944-.793"/>
            <path fill="#665896" d="M118.991 133.501c.438 0 .726-.355.642-.793-.083-.437-.506-.792-.943-.792h-1.585c-.438 0-.725.355-.642.792.083.438.505.793.943.793h1.585"/>
            <path fill="#5B7BB0" d="M121.218 132.708c.084.438.506.793.944.793h5.151c.437 0 .725-.355.642-.793-.084-.437-.506-.792-.944-.792h-5.151c-.438 0-.725.355-.642.792M87.29 133.501h7.926c.437 0 .724-.355.641-.793-.083-.437-.506-.792-.943-.792h-7.926c-.437 0-.724.355-.64.792.083.438.505.793.943.793"/>
            <path fill="#665896" d="M98.387 133.501h15.85c.437 0 .724-.355.641-.793-.083-.437-.506-.792-.943-.792h-15.85c-.439 0-.726.355-.642.792.083.438.505.793.944.793"/>
            <path fill="#525C99" d="M345.498 195.326H23.955a1.908 1.908 0 1 1 0-3.816h321.543a1.908 1.908 0 0 1 0 3.816"/>
            <path fill="#1C2142" d="M367.545 192.382H1.908A1.908 1.908 0 0 1 0 190.474v-5.95c0-1.054.853-1.908 1.908-1.908h365.637c1.053 0 1.908.854 1.908 1.908v5.95a1.909 1.909 0 0 1-1.908 1.908"/>
            <path fill="#FAE0C5" d="M215.784 165.42s-7.74-2.554-12.36-4.056c-4.62-1.501-12.013 1.27-17.327 5.199 0 0-3.696 3.118-2.426 4.158 1.271 1.04 7.393-3.928 12.707-4.506 0 0-12.36 7.856-11.09 10.628.423.923 1.963.716 3.824.033-.28.508-.365.948-.105 1.238.656.728 4.222-.561 7.458-1.948-.629.459-1.04.93-1.01 1.37.114 1.732 10.048-2.772 10.048-2.772s6.354 4.158 10.743 1.502c0 0 1.733-7.252-.462-10.846"/>
            <path fill="#A09DC2" d="M211.587 177.65H70.859c-1.158 0-2.097.94-2.097 2.1v.768c0 1.158.939 2.098 2.097 2.098h140.728c1.16 0 2.098-.94 2.098-2.098v-.769a2.098 2.098 0 0 0-2.098-2.098"/>
            <path fill="#6C72A7" d="M170.27 105.719l14.393 68.14c.442 2.093-.898 3.792-2.981 3.792H70.879c-2.093 0-4.152-1.7-4.594-3.791l-14.393-68.141c-.442-2.093.9-3.782 2.993-3.782h110.803c2.084 0 4.14 1.69 4.581 3.782"/>
            <path fill="#9193BC" d="M166.786 105.719l14.392 68.14c.442 2.093-.889 3.792-2.98 3.792H70.877c-2.092 0-4.151-1.7-4.593-3.791l-14.393-68.141c-.442-2.093.9-3.782 2.993-3.782h107.319c2.092 0 4.139 1.69 4.582 3.782"/>
            <path fill="#FFFFFE" d="M113.07 135.635a4.193 4.193 0 0 0-4.188 4.188 4.193 4.193 0 0 0 4.188 4.188 4.193 4.193 0 0 0 4.188-4.188 4.193 4.193 0 0 0-4.188-4.188zm0 11.256a7.075 7.075 0 0 1-7.068-7.068c0-3.898 3.17-7.068 7.068-7.068a7.076 7.076 0 0 1 7.068 7.068c0 3.898-3.17 7.068-7.068 7.068z"/>
        </g>
    </g>
</svg>
