<svg xmlns="http://www.w3.org/2000/svg" width="48" height="49" viewBox="0 0 48 49">
    <path fill="#676767" fill-rule="nonzero" d="M19.127 35.174c3.097 0 5.84-.792 8.229-2.378 2.187-1.416 3.887-3.322 5.098-5.717 1.178-2.26 1.767-4.604 1.767-7.033 0-.303-.017-.523-.05-.657a11.666 11.666 0 0 0 2.675-2.783c-1.01.438-2.02.725-3.029.86 1.145-.708 1.919-1.687 2.322-2.935a10.77 10.77 0 0 1-3.382 1.265 5.995 5.995 0 0 0-1.741-1.214 5.047 5.047 0 0 0-2.146-.455 5.11 5.11 0 0 0-2.625.708 5.194 5.194 0 0 0-1.918 1.948 5.276 5.276 0 0 0-.707 2.656c0 .405.034.81.101 1.214a14.647 14.647 0 0 1-6.083-1.619 14.623 14.623 0 0 1-4.82-3.946c-.505.843-.758 1.729-.758 2.656 0 .928.219 1.78.656 2.555a5.89 5.89 0 0 0 1.717 1.923 4.982 4.982 0 0 1-2.373-.708v.1c0 1.249.404 2.362 1.212 3.34.807.978 1.817 1.602 3.028 1.872a6.714 6.714 0 0 1-1.413.152c-.303 0-.623-.017-.96-.05a5.283 5.283 0 0 0 1.843 2.605c.892.691 1.927 1.037 3.105 1.037-1.952 1.518-4.156 2.277-6.613 2.277-.471 0-.892-.017-1.262-.05 2.457 1.585 5.166 2.377 8.127 2.377z"/>
</svg>
