<svg xmlns="http://www.w3.org/2000/svg" width="48" height="49" viewBox="0 0 48 49">
    <path fill="#797979" fill-rule="nonzero" d="M23.797 33.622l4.265-.047c3-.094 4.907-.25 5.72-.47a3.248 3.248 0 0 0 1.452-.845c.407-.407.688-.877.844-1.41.219-.845.375-2.145.469-3.9l.047-2.348-.047-2.35c-.094-1.722-.25-3.006-.469-3.852a3.258 3.258 0 0 0-.844-1.456 3.248 3.248 0 0 0-1.453-.846c-.812-.219-2.719-.376-5.719-.47l-4.265-.047-4.266.047c-3 .094-4.906.251-5.719.47a3.248 3.248 0 0 0-1.453.846 3.258 3.258 0 0 0-.843 1.456c-.22.846-.375 2.13-.47 3.853-.03.877-.046 1.66-.046 2.349l.047 2.349c.094 1.754.25 3.054.469 3.9.156.532.437 1.002.843 1.409.407.407.891.689 1.453.845.813.22 2.72.376 5.72.47l4.265.047zm-2.625-5.168v-7.658l6.703 3.806-6.703 3.852z"/>
</svg>
